<?xml version="1.0" encoding="UTF-8"?>
<svg id="Layer_1" xmlns="http://www.w3.org/2000/svg" version="1.1" viewBox="0 0 48 26">
  <!-- Generator: Adobe Illustrator 29.0.1, SVG Export Plug-In . SVG Version: 2.1.0 Build 192)  -->
  <defs>
    <style>
      .st0 {
        fill: #31a836;
        fill-rule: evenodd;
      }
    </style>
  </defs>
  <path class="st0" d="M13.1,7.2v-3.2c2.8.3,5.4,2,5.4,5.6v10.4h-3.5v-10.4c0-1.4-.7-2.2-1.9-2.5h0ZM3.7,9.4c.8-.9,1.9-1.4,3.5-1.4h0c3.1,0,5.6,2.7,5.6,6.2s-2.5,6.2-5.6,6.2-2.7-.5-3.5-1.4v1.1H.2V4.4h3.5s0,5,0,5ZM3.5,14.2c0,1.9,1.3,3.1,3,3.1s3-1.2,3-3.1-1.3-3.1-3-3.1-3,1.2-3,3.1ZM20.6,14.2c0-3.5,2.8-6.2,6.2-6.2s6.2,2.7,6.2,6.2-2.8,6.2-6.2,6.2-6.2-2.7-6.2-6.2h0ZM23.9,14.2c0,1.8,1.3,3,2.9,3s2.9-1.2,2.9-3-1.3-3-2.9-3-2.9,1.2-2.9,3h0ZM47.2,8.3h-3.4v1.2c-.8-1-1.9-1.5-3.4-1.5-3.3,0-5.7,2.7-5.7,5.9s2.4,5.9,5.7,5.9,2.6-.6,3.4-1.5v1.1c0,1.7-1,2.5-2.6,2.5h-.1v3.1c3.1,0,6.2-1.7,6.2-5.6v-11.1h0ZM41,16.9c-1.8,0-3.1-1.2-3.1-2.9s1.3-2.9,3.1-2.9,3.1,1.2,3.1,2.9-1.3,2.9-3.1,2.9Z"/>
</svg>