<?xml version="1.0" encoding="UTF-8"?>
<svg id="Isolation_Mode" xmlns="http://www.w3.org/2000/svg" version="1.1" viewBox="0 0 85.83 91.74">
  <!-- Generator: Adobe Illustrator 29.0.1, SVG Export Plug-In . SVG Version: 2.1.0 Build 192)  -->
  <defs>
    <style>
      .st0 {
        fill: #231f20;
      }

      .st1 {
        fill: #fdd1b0;
      }

      .st2 {
        fill: #fff;
      }

      .st3 {
        fill: #ed1c24;
      }

      .st4 {
        fill: #ffcb05;
      }

      .st5 {
        fill: #005e9a;
      }

      .st6 {
        fill: #00b5a5;
      }

      .st7 {
        opacity: .1;
      }
    </style>
  </defs>
  <path class="st7" d="M58.89,85.73c0,2.67-6.92,4.83-15.45,4.83s-15.45-2.16-15.45-4.83,6.92-4.83,15.45-4.83,15.45,2.16,15.45,4.83"/>
  <g>
    <path class="st0" d="M84.77,2.41c-.38-.41-.95-.58-1.5-.46-.52.12-3.68,1.16-14.91,10.31-1.37,1.12-2.82,2.09-4.21,3.02-2.48,1.66-4.84,3.24-6.74,5.56-.79-.31-1.62-.57-2.49-.79.37-1.98,1.71-9.07,1.71-9.07.02-.1.03-.2.03-.29,0-.46-.2-.91-.57-1.21-.44-.37-1.04-.47-1.58-.27l-23.52,8.96c-.49.19-.85.61-.97,1.11-.09-2.55-.8-4.07-1.36-4.86.07-.91.12-1.76.12-2.53,0-4.1-.9-6.21-.95-6.32-.27-.6-.87-.98-1.53-.95-.66.04-1.23.47-1.43,1.1-.02.06-2.13,6.65-5.04,14.74-.44,1.22-.99,3.14-1.24,5.58-.25-.39-.59-.75-1.08-1.04-1.14-.69-2.76-.51-4.01.45-.71.54-2.04,1.93-2.04,4.73,0,.7.09,1.5.29,2.38-.03.05-.07.1-.1.16-.81.9-2.73,2.34-6.83,2.34h0c-1.04,0-1.95.37-2.64,1.07-.67.69-1.07,1.67-1.07,2.63,0,.03,0,.06,0,.09,0,.42.1.79.24,1.13-.43.59-.75,1.34-.75,2.22,0,.29.04.59.12.91.48,1.92,1.94,2.71,3.07,2.97.62.63,1.83,1.59,3.89,2.15,1.85.5,6.41.66,9.21-.23.7.32,2.06.95,2.83,1.3.15.41.4.9.79,1.32.8.86,2.37,1.41,4.13.87.87.45,4.56,2.35,6.42,3.31-.91,1.63-1.5,3.2-1.79,4.71-.12.21-.21.45-.23.7,0,.04-.02.26-.02.63,0,.17,0,.39.01.62,0,.03,0,.06,0,.06l.04.55v-.1c.12,1.68.57,4.15,2,6.39,1.65,2.59,1.31,5.23.69,7.69-.34,1.35.02,2.54.98,3.28,1.41,1.08,3.73.79,5.2-.02,1.71-.95,2.96-2.49,3.69-4.43,0,.01.01.03.02.04l.62,1.71c1.13,3.19,2.4,6.8,6.64,6.44,1.49-.12,2.74-.85,3.62-2.1,1.02-1.46,1.41-3.43,1.41-5.45,0-1.67-.27-3.38-.66-4.84-.18-.69-.38-1.36-.59-2.02.16.09.32.17.5.22,1.31.38,2.5-.29,3.55-2,1.32.68,2.67,1.15,3.97,1.4.94,1.18,2.43,2.17,3.98,1.5.74-.32,1.27-.85,1.54-1.54.15-.37.2-.74.2-1.07,0-.12-.01-.23-.02-.34.2-.34.32-.72.34-1.13,0-.05,0-.1,0-.14,0-1.08-.65-2.15-1.95-3.16-.48-.41-2.47-3.01-3.12-3.86l-.48-.62c-.9-1.15-1.88-2.34-2.34-2.9-.37-1.63-1.64-4.05-4.47-3.94-.09,0-.19.02-.29.03-.31-.33-.62-.64-.9-.92,2.43-.51,4.77-1.3,7.01-2.94,2.67-1.95,4.7-4.7,5.79-7.78.91-.63,1.86-1.39,2.82-2.3,4.22-4,4.77-8.79,4.8-9.16,0-.05.04-.33.07-.63.32-.32.67-.67.67-.67l.2-.21c5.05-5.22,6.25-11.62,6.53-14.04.36-.52,1.04-1.51,1.38-2.09,1.52-2.56,2.6-6.29,2.65-6.44.04-.14.06-.29.06-.44,0-.4-.15-.79-.43-1.09M50.66,62.36c.12.16.14.18.25.33-.04.35-.06.7-.07,1.04-.21-.5-.43-.98-.63-1.42.15.02.31.04.44.04M30.05,19.98c.06.29.18.57.4.79.68.68,1.62,1.58,2.5,2.4-1.02.59-1.96,1.25-2.85,1.95-.14-.53-.32-.94-.51-1.26.31-1.48.44-2.77.46-3.88"/>
    <path class="st2" d="M64.72,66.45s.59,1.34-.64,1.87c-1.14.49-2.35-1.34-2.35-1.34"/>
    <path class="st0" d="M64.55,66.05c-.22.1-.32.35-.23.58.07.16.36.96-.41,1.29-.65.28-1.55-.79-1.81-1.18-.13-.2-.41-.26-.61-.12-.2.13-.26.41-.12.61.06.09,1.43,2.13,2.89,1.51.45-.19.77-.51.93-.91.28-.72-.03-1.46-.06-1.54-.1-.22-.35-.32-.58-.23"/>
    <polyline class="st6" points="33.43 54.25 24.19 49.5 27.39 42.63 39.58 50.09"/>
    <path class="st0" d="M26.99,42.44l-3.37,7.26,9.61,4.94.4-.78s-8.17-4.2-8.86-4.56c.29-.64,2.46-5.31,2.81-6.04.79.48,11.78,7.2,11.78,7.2l.46-.75-12.62-7.72-.21.45Z"/>
    <path class="st2" d="M10.8,43c3.17,3.88,5.79,3.14,5.79,3.14l4.47,2.05s.1.81.61,1.37c.52.55,1.97,1.03,3.6-.09,2.35-1.61,2.91-5.07,2.91-5.07l-.04-3.17-5.11-1.99-5.83-5.64s-2.77,1.04-4.23,3.57c-1.46,2.53-3.29,5.23-3.29,5.23"/>
    <path class="st0" d="M17.06,33.19c-.12.04-2.94,1.12-4.46,3.76-1.43,2.49-3.25,5.17-3.27,5.2l.73.5s1.86-2.74,3.31-5.26c1.12-1.95,3.08-2.97,3.75-3.27.39.38,5.68,5.49,5.68,5.49,0,0,4.42,1.72,4.91,1.91,0,.48.03,2.76.03,2.83-.06.32-.66,3.34-2.72,4.74-1.47,1-2.68.54-3.04.15-.41-.43-.5-1.11-.5-1.12l-.03-.24-.22-.1-4.61-2.12-.16.04c-.1.03-2.41.58-5.33-2.99l-.68.56c2.9,3.55,5.41,3.43,6.07,3.32.23.11,3.77,1.73,4.13,1.9.08.33.26.91.68,1.36.62.67,2.31,1.25,4.17-.03,2.48-1.69,3.08-5.21,3.1-5.36v-.04s-.04-3.51-.04-3.51c0,0-5.14-2-5.3-2.06-.12-.12-5.96-5.77-5.96-5.77l-.26.1Z"/>
    <path class="st4" d="M28.83,28.14c.08-3.28-.93-3.88-.93-3.88,1.7-7.23-.85-9.33-.85-9.33.6-5.85-.65-8.72-.65-8.72,0,0-2.1,6.58-5.06,14.8-1.08,3-1.79,7.43-.82,12.5,1.4,7.28,4.2,8.26,4.2,8.26"/>
    <path class="st0" d="M25.97,6.08c-.02.06-2.13,6.67-5.06,14.78-.8,2.22-1.97,6.82-.83,12.73,1.43,7.44,4.36,8.55,4.49,8.59l.3-.83s-2.6-1.07-3.92-7.93c-.33-1.7-.46-3.29-.46-4.74,0-3.4.71-6.03,1.25-7.53,2.15-5.96,3.85-11.1,4.62-13.45.2.91.4,2.3.4,4.17,0,.89-.05,1.89-.16,3l-.02.23.18.15s1.27,1.15,1.27,4.5c0,1.17-.15,2.62-.57,4.39l-.07.28.26.19s.74.57.74,3.13c0,.12,0,.24,0,.37l.88.02c0-.14,0-.27,0-.4,0-2.29-.55-3.26-.9-3.65.39-1.72.54-3.16.54-4.35,0-3.12-1.01-4.53-1.42-4.98.1-1.07.15-2.05.15-2.92,0-3.81-.81-5.72-.86-5.81l-.47-1.07-.35,1.11Z"/>
    <path class="st5" d="M39.13,22.17c-6.68,2.09-14,7.28-14.84,15.96-.97,10.03,8.12,13.44,18.76,12.32,6.16-1.68,11.55-1.05,16.24-4.48,4.2-3.07,6.75-8.36,5.88-13.72-1.96-12.04-17.08-12.88-26.04-10.08"/>
    <path class="st0" d="M39,21.75h0c-3.28,1.03-14.07,5.23-15.15,16.34-.36,3.72.6,6.74,2.85,8.97,3.26,3.24,9.09,4.6,16.39,3.83h.04s.03-.01.03-.01c2.1-.57,4.11-.87,6.05-1.16,3.69-.55,7.17-1.07,10.33-3.38,4.54-3.32,6.91-8.87,6.05-14.15-.64-3.9-2.64-6.91-5.95-8.96-5.89-3.63-14.62-3.36-20.66-1.47M59.2,23.97c3.08,1.9,4.95,4.71,5.54,8.35.11.67.16,1.34.16,2.02,0,4.31-2.17,8.57-5.87,11.27-2.98,2.18-6.21,2.66-9.94,3.22-1.96.29-3.98.6-6.11,1.18-7.03.73-12.59-.54-15.66-3.58-2.05-2.03-2.92-4.82-2.59-8.26,1.02-10.56,11.38-14.6,14.53-15.58,5.85-1.83,14.28-2.11,19.93,1.38"/>
    <path class="st0" d="M26.56,15.06c-.24,2.05-.78,5.26-2.01,8.98-.08.23.05.48.28.56.23.08.48-.05.56-.28,1.25-3.79,1.8-7.07,2.04-9.15.03-.24-.15-.46-.39-.49-.24-.03-.46.14-.49.39"/>
    <path class="st0" d="M26.4,28.86c-.05.24.1.46.33.52.24.05.48-.1.53-.34l1.06-4.68c-.05.24-.29.38-.53.33-.24-.05-.38-.29-.33-.53l-1.07,4.7Z"/>
    <path class="st0" d="M54.93,10.28l-24.15,9.2.48.48c1.67,1.67,5.02,4.74,5.05,4.77l.35.32.29-.37s3.97-4.81,16.12-3.19l.41.05,2.18-11.54-.73.28Z"/>
    <path class="st1" d="M47.83,22.86c-7.7.63-11.78,8.55-11.78,8.55-1.94-4.55-4.43-4.73-5.79-4.4-3.14,2.72-5.52,6.4-5.97,11.12-.34,3.55.58,6.27,2.38,8.25,2.07,1.44,5.37,2.37,10.56,2.37,15.79,0,21.97-8.46,21.85-14.9-.13-6.44-3.54-11.62-11.24-10.99"/>
    <path class="st0" d="M47.8,22.42c-6.54.54-10.48,6.03-11.71,8.05-2.03-4.09-4.55-4.22-5.92-3.89-.07.02-.13.05-.19.09-3.58,3.1-5.7,7.04-6.12,11.41-.34,3.51.5,6.4,2.49,8.59.02.03.05.05.08.07,2.36,1.64,5.9,2.44,10.81,2.44,10.12,0,15.58-3.4,18.38-6.25,2.55-2.6,3.97-5.91,3.91-9.1-.08-3.92-1.29-7.05-3.52-9.06-2.04-1.84-4.8-2.64-8.19-2.36M36.44,31.61c.04-.08,4.06-7.71,11.43-8.31,3.15-.26,5.68.46,7.53,2.13,2.04,1.85,3.16,4.76,3.23,8.42.06,2.95-1.27,6.04-3.66,8.47-2.68,2.73-7.93,5.98-17.75,5.98-4.63,0-8.08-.76-10.26-2.26-1.53-1.71-2.3-3.88-2.3-6.49,0-.45.02-.91.07-1.39.4-4.16,2.33-7.77,5.73-10.75,1.21-.26,3.4-.02,5.18,4.16.07.16.22.26.39.27.17,0,.33-.09.41-.24"/>
    <path class="st0" d="M44.84,38.84c-6.73,2.79-12.28,1.67-12.34,1.66-.18-.04-.37.04-.47.2-.1.16-.08.36.03.51,2.42,3,4.71,5.83,8.75,4.48,3.89-1.3,4.6-6.17,4.62-6.38.02-.16-.04-.31-.17-.41-.12-.1-.29-.12-.44-.06"/>
    <path class="st0" d="M30.73,32.53c-1.75.25-2.52,6.16-1.12,6.16s3.08-6.44,1.12-6.16"/>
    <path class="st2" d="M30,33.47c-.92.09-1.32,2.21-.59,2.21s1.62-2.31.59-2.21"/>
    <path class="st0" d="M48.37,29.45c-2.46.61-3.08,7-.84,7s3.08-7.56.84-7"/>
    <path class="st2" d="M47.55,30.28c-1.31.26-1.92,2.94-.75,2.94,1.17,0,1.95-3.17.75-2.94"/>
    <path class="st6" d="M48.18,49.63s-.89,5.95-.89,11.31-16.66,5.95-16.66.59,5.36-10.71,5.36-10.71c0,0,6.85-2.08,12.2-1.19"/>
    <path class="st0" d="M35.85,50.4l-.11.03-.08.08c-.22.22-5.48,5.55-5.48,11.02,0,1.36.9,2.48,2.61,3.22,1.42.62,3.36.95,5.47.95,4.7,0,9.46-1.64,9.46-4.77,0-5.26.88-11.19.89-11.24l.06-.43-.43-.07c-5.4-.9-12.12,1.12-12.4,1.2M47.68,50.01c-.2,1.48-.83,6.43-.83,10.92,0,2.43-4.36,3.89-8.58,3.89-1.99,0-3.81-.31-5.12-.88-.95-.41-2.08-1.17-2.08-2.41,0-4.77,4.52-9.66,5.15-10.32.82-.24,6.69-1.84,11.47-1.2"/>
    <path class="st6" d="M30.62,60.34s-.29,3.91,1.79,7.19c2.08,3.27,1.49,6.55.89,8.93-.6,2.38,2.35,2.33,3.87,1.49,2.68-1.49,3.57-4.46,3.57-7.14s-.9-6-.9-6"/>
    <path class="st0" d="M32.04,67.76c1.88,2.96,1.52,5.87.84,8.58-.29,1.15.15,1.77.57,2.09.97.75,2.8.52,3.94-.11,2.41-1.34,3.8-4.08,3.8-7.53,0-2.7-.87-5.98-.91-6.11l-.85.23s.88,3.3.88,5.88c0,1.83-.43,5.14-3.35,6.76-.88.49-2.34.67-2.98.18-.11-.09-.46-.35-.25-1.18.69-2.76,1.12-6.02-.95-9.27-1.98-3.1-1.72-6.88-1.72-6.92l-.88-.07c-.01.17-.28,4.1,1.86,7.46Z"/>
    <path class="st6" d="M35.38,64.8l2.98.3s3.28,5.4,4.76,9.27c1.49,3.87,2.08,7.44,5.66,7.14,3.57-.3,4.29-5.5,2.98-10.41-1.7-6.37-4.77-11.65-4.77-11.65"/>
    <path class="st0" d="M46.61,59.67c.03.05,3.05,5.31,4.72,11.54.94,3.5.76,6.88-.45,8.61-.53.76-1.25,1.18-2.13,1.25-2.56.21-3.36-1.7-4.57-5.1l-.64-1.76c-1.49-3.86-4.66-9.12-4.8-9.34l-.11-.19-3.2-.32-.09.88s2.38.24,2.76.28c.57.96,3.31,5.61,4.62,9.01l.63,1.74c1.13,3.2,2.11,5.96,5.47,5.69,1.14-.1,2.1-.66,2.78-1.62,1.38-1.96,1.6-5.54.58-9.35-1.7-6.35-4.78-11.7-4.81-11.76l-.76.44Z"/>
    <path class="st4" d="M72.2,26.65c.46-.42.78-.77,1.24-1.24,4.83-5,5.93-11.2,6.13-13.51,0,0,1.11-1.59,1.55-2.33,1.43-2.42,2.49-6.07,2.49-6.07,0,0-2.75.62-14.25,9.99-4.55,3.71-9.46,5.55-12.18,10.5-3.97,7.22-1.14,13.24-1.14,13.24,0,0,3.1,6.92,11.7-1.22,3.91-3.7,4.32-8.17,4.32-8.17l.14-1.19Z"/>
    <path class="st0" d="M83.52,3.07c-.12.03-2.98.75-14.43,10.08-1.42,1.16-2.88,2.14-4.3,3.08-3.12,2.09-6.07,4.06-7.99,7.54-4.04,7.33-1.28,13.39-1.16,13.64.04.09,1.1,2.39,3.67,2.9,2.48.49,5.41-.85,8.73-3.98,3.99-3.77,4.43-8.26,4.45-8.45,0,0,.1-.8.12-1.03.19-.19.94-.93.94-.93l.2-.21c5.03-5.21,6.05-11.63,6.24-13.65.25-.35,1.12-1.61,1.5-2.26,1.45-2.44,2.49-6.02,2.54-6.18l.21-.71-.73.16ZM59.5,39.46c-2.13-.42-3.05-2.38-3.06-2.4-.02-.04-.92-2.04-.92-5.08,0-2.18.46-4.88,2.05-7.77,1.81-3.29,4.68-5.21,7.71-7.24,1.43-.96,2.91-1.95,4.37-3.13,8.13-6.63,11.82-8.83,13.27-9.56-.4,1.22-1.2,3.45-2.16,5.08-.43.72-1.52,2.28-1.53,2.3l-.07.1v.12c-.17,1.82-1.1,8.15-6.02,13.24l-.2.21-1.13,1.12-.03.16-.14,1.19c0,.05-.45,4.37-4.18,7.91-3.08,2.92-5.76,4.19-7.94,3.76"/>
    <path class="st0" d="M79.24,11.62c-1.94,2.35-4.97,4.96-9.54,8.23-.2.14-.24.42-.1.61.14.2.42.24.61.1,4.63-3.31,7.71-5.98,9.71-8.38.15-.19.13-.46-.06-.62-.19-.15-.47-.13-.62.06"/>
    <path class="st0" d="M71.91,26.32c-4.34,3.91-6.31,4.67-6.33,4.67-.23.08-.34.34-.26.56.08.23.33.35.56.26.08-.03,2.11-.79,6.62-4.85.18-.16.2-.44.03-.62-.16-.18-.44-.19-.62-.03"/>
    <path class="st0" d="M18.19,44.29c-.58,1.21-1.63,1.4-1.68,1.41-.24.04-.4.27-.36.5.04.24.26.4.5.37.06,0,1.54-.25,2.33-1.89.1-.22.01-.48-.21-.59-.22-.11-.48-.01-.59.21"/>
    <path class="st3" d="M38.92,43.65c-.4-.8,3.67-1.97,3.67-.56s-3.1,1.69-3.67.56"/>
    <path class="st2" d="M13.47,32.91s-1.78,3.75-8.65,3.74c-1.56,0-2.15,1.33-2.12,2.17.02.91.72,1.34.72,1.34,0,0-1.57.98-1.17,2.57.47,1.87,2.34,1.87,2.34,1.87,0,0,.93,1.4,3.51,2.1,1.58.43,5.97.58,8.42-.23,2.81-.94,2.57-3.74,2.57-3.74"/>
    <path class="st0" d="M13.08,32.72c-.07.14-1.78,3.5-8.25,3.49h0c-.73,0-1.35.25-1.82.73-.55.56-.74,1.31-.74,1.84,0,.02,0,.04,0,.05.01.59.26,1.02.49,1.3-.42.39-1,1.1-1,2.08,0,.2.02.41.08.63.4,1.59,1.73,2.11,2.54,2.19.35.42,1.42,1.51,3.62,2.1,1.72.47,6.22.58,8.67-.24,2.48-.83,2.96-3.11,2.87-4.2-.02-.24-.23-.42-.47-.4-.24.02-.42.23-.4.47,0,.1.16,2.48-2.27,3.29-2.38.79-6.72.62-8.16.23-2.36-.64-3.25-1.91-3.26-1.93-.08-.12-.22-.19-.36-.19-.06,0-1.54-.03-1.91-1.54-.31-1.25.92-2.06.98-2.09.13-.08.2-.22.2-.37s-.08-.29-.2-.37c-.02-.01-.5-.33-.52-.98,0-.34.11-.87.49-1.26.3-.31.7-.46,1.19-.46,7.07,0,8.97-3.83,9.05-3.99.1-.22.01-.48-.21-.58-.22-.1-.48-.01-.59.21"/>
    <path class="st0" d="M9.54,38.14c-.22.03-.38.22-.38.43,0,.02,0,.04,0,.06,0,0,.46,3.19.58,4.03-.98-.07-1.91-.34-2.89-.63l-.45-.13c-.84-.25-1.35,0-1.64.24-.85.73-.64,2.34-.62,2.52.03.24.26.41.5.37.24-.03.41-.26.37-.5-.05-.34-.09-1.37.32-1.73.06-.06.25-.22.81-.06l.45.13c1.21.36,2.34.7,3.65.7.13,0,.25-.06.33-.15.08-.1.12-.23.1-.35l-.65-4.56c-.04-.24-.26-.41-.5-.37"/>
    <path class="st0" d="M3.43,39.72l-.03.88c4.42.13,6.46-.72,6.55-.75l-.35-.81s-1.97.81-6.17.68"/>
    <path class="st2" d="M19.47,39.17s.27-2.85-.85-5.56c-1.57-3.78-.18-6.21-1.91-7.24-1.26-.75-4.87.7-3.23,6.54,0,0-1.92,2.18-1.4,4.83"/>
    <path class="st0" d="M14.2,26.38c-.56.42-1.58,1.52-1.58,3.82,0,.74.11,1.61.38,2.62-.39.51-1.45,2.04-1.45,4,0,.33.03.67.1,1.02.05.24.28.39.52.35.24-.05.39-.28.35-.52-.47-2.4,1.28-4.44,1.3-4.46.1-.11.13-.27.09-.41-1.06-3.78.24-5.26.84-5.72.65-.5,1.39-.54,1.74-.33.68.41.74,1.07.81,2.42.06,1.22.14,2.74.92,4.61,1.06,2.57.83,5.32.82,5.35-.02.24.16.46.4.48.24.02.46-.16.48-.4.01-.12.26-2.99-.89-5.76-.71-1.73-.79-3.16-.85-4.32-.07-1.32-.13-2.47-1.24-3.13-.73-.44-1.86-.28-2.73.38"/>
    <path class="st6" d="M46.19,52.71c-.46,2.6.77,3.51.77,3.51,2.29,1.07,3.05,3.51,3.05,3.51l4.91-5.14c-2.46-3.52-5.06-5.1-5.06-5.1-1.68-.76-3.36.15-3.36.15"/>
    <path class="st0" d="M46.29,49.27l.42.77s1.51-.79,2.95-.14c.16.1,2.45,1.58,4.69,4.67-.42.44-3.47,3.63-4.19,4.38-.4-.84-1.28-2.27-2.94-3.08-.06-.06-.69-.61-.69-2.04,0-.31.03-.65.1-1.04l-.87-.15c-.5,2.83.87,3.9.93,3.94l.04.03.04.02c2.08.97,2.82,3.23,2.82,3.25l.22.71.51-.54,5.16-5.4-.21-.3c-2.49-3.56-5.08-5.16-5.19-5.22h-.02s-.02-.02-.02-.02c-1.86-.85-3.68.12-3.75.17"/>
    <path class="st2" d="M52.56,62.25l-1.13-1.49s-3.54.52-2.69-2.91c.68-2.77,3.79-5.12,5.71-5.2,2.52-.09,2.94,3.06,2.94,3.06,0,0,1.38,1.65,2.57,3.18.58.74,3.17,4.2,3.87,4.75,4.05,3.17-1.76,4.93-7.74,1.05-2.29,5.28-4.22,1.94-3.54-2.44"/>
    <path class="st0" d="M54.44,52.21c-2.16.08-5.41,2.65-6.12,5.53-.29,1.16-.15,2.06.41,2.67.74.81,1.97.84,2.5.8.2.26.72.96.87,1.16-.08.53-.12,1.07-.12,1.6,0,1.84.46,3.5,1.53,3.81.66.19,1.66-.12,2.77-2.47,3.96,2.39,8,2.56,9.08,1.05.12-.16.26-.44.26-.82,0-.56-.32-1.33-1.51-2.27-.53-.42-2.49-2.97-3.33-4.07l-.47-.61c-1.03-1.32-2.21-2.74-2.51-3.1-.21-1.25-1.13-3.38-3.36-3.3M49.38,59.82c-.35-.39-.42-1.02-.21-1.87.67-2.69,3.67-4.8,5.3-4.86,2.09-.08,2.47,2.56,2.48,2.68l.02.13.08.1s1.39,1.66,2.57,3.17l.46.6c1.38,1.81,2.91,3.78,3.48,4.23.97.76,1.38,1.46,1.08,1.88-.66.93-4.32,1.04-8.31-1.54l-.44-.28-.21.48c-.91,2.1-1.64,2.51-1.93,2.43-.59-.17-1.17-2.02-.76-4.63l.03-.18-1.4-1.85-.26.04s-1.37.18-1.99-.5"/>
    <path class="st0" d="M60.63,62.56c-.11.22-.02.48.2.59.07.04,1.8.9,3.21,1.43.23.08.48-.03.57-.26.08-.23-.03-.48-.26-.57-1.37-.51-3.11-1.38-3.12-1.39-.22-.11-.48-.02-.59.2"/>
    <path class="st3" d="M54.51,11.38c-.24,1.27-1.61,8.5-1.74,9.18-10.61-1.31-15.04,2.09-16.19,3.22-.78-.72-2.82-2.61-4.22-3.97,1.17-.45,20.8-7.92,22.14-8.44"/>
  </g>
</svg>