<?xml version="1.0" encoding="UTF-8"?>
<svg id="Layer_2" data-name="Layer 2" xmlns="http://www.w3.org/2000/svg" viewBox="0 0 238.09 46.34">
  <defs>
    <style>
      .cls-1 {
        fill: #36539c;
      }
    </style>
  </defs>
  <g id="Isolation_Mode" data-name="Isolation Mode">
    <g>
      <path class="cls-1" d="M21.58,23.94l1.01-8.13h-7.45v-4.69c0-2.27.33-3.81,3.58-3.81h4.14V.31c-.72-.1-3.17-.31-6.04-.31C9.92,0,6.15,3.65,6.15,10.35v5.47H0v8.13h6.15v21.59h8.99v-21.59h6.44Z"/>
      <path class="cls-1" d="M43.72,15.71v4.16c-2.09-2.86-5.43-4.71-9.19-4.71-6.96,0-11.46,5.83-11.46,12.29v6.3c0,6.46,5.13,12.29,11.46,12.29,3.76,0,7.1-1.85,9.19-4.72v4.21h8.46V15.71h-8.46ZM43.32,32.71c0,3.52-2.5,6.38-5.57,6.38s-5.57-3.17-5.57-6.7v-3.43c0-3.52,2.19-6.7,5.57-6.7,3.08,0,5.57,2.86,5.57,6.38v4.07Z"/>
      <path class="cls-1" d="M112.19,1.15v44.39h8.46v-4.21c2.09,2.86,5.43,4.72,9.2,4.72,6.33,0,11.46-5.83,11.46-12.29v-6.3c0-6.46-4.5-12.29-11.46-12.29-5.02,0-7.28,1.81-8.59,4.41V.24l-9.07.91ZM121.06,28.63c0-3.52,2.5-6.37,5.57-6.37,3.39,0,5.58,3.17,5.58,6.7v3.43c0,3.52-2.49,6.7-5.58,6.7s-5.57-2.85-5.57-6.38v-4.08Z"/>
      <path class="cls-1" d="M79.74,17.27s-2.16-2.11-9.02-2.11-15.26,2.37-15.26,15.21,7.2,15.67,15.37,15.67c0,0,5.49.03,8.92-1.86l-2.16-6.65s-1.83,1.87-5.94,1.56c-4.03-.3-7.06-1.06-7.06-8.87,0-8.41,6.05-7.96,6.9-7.96s4.23.2,6.1,1.36l2.16-6.35Z"/>
      <path class="cls-1" d="M108.46,27.85c0-3.33-1.41-12.7-13.45-12.7s-14.46,8.66-14.46,12.7v6.55s.3,11.94,14.46,11.94c0,0,10.38-.2,13.05-2.42l-1.86-6.3s-3.43,1.97-9.67,1.97-6.99-3.98-6.99-5.9h18.93v-5.84ZM100.4,27.85h-10.78s-1.21-6.5,5.39-6.5,5.39,6.5,5.39,6.5"/>
      <path class="cls-1" d="M159.34,15.21c-8.22,0-14.89,4.64-14.89,14.86v1.27c0,10.02,6.67,14.85,14.89,14.85s14.89-4.63,14.89-14.85v-1.27c0-10.07-6.67-14.86-14.89-14.86M165.01,33.42c0,3.13-2.54,5.67-5.66,5.67s-5.67-2.54-5.67-5.67v-5.44c0-3.13,2.54-5.67,5.67-5.67s5.66,2.54,5.66,5.67v5.44Z"/>
      <path class="cls-1" d="M191.79,15.21c-8.22,0-14.89,4.64-14.89,14.86v1.27c0,10.02,6.67,14.85,14.89,14.85s14.89-4.63,14.89-14.85v-1.27c0-10.07-6.67-14.86-14.89-14.86M197.46,33.42c0,3.13-2.54,5.67-5.67,5.67s-5.66-2.54-5.66-5.67v-5.44c0-3.13,2.53-5.67,5.66-5.67s5.67,2.54,5.67,5.67v5.44Z"/>
      <polygon class="cls-1" points="238.09 45.54 227.86 30.37 237.18 15.86 227.66 15.86 219 29.45 219 19.57 219 .24 209.93 1.15 209.93 45.54 219 45.54 219 31.35 228.06 45.54 238.09 45.54"/>
    </g>
  </g>
</svg>