<?xml version="1.0" encoding="UTF-8"?>
<svg id="Layer_2" data-name="Layer 2" xmlns="http://www.w3.org/2000/svg" viewBox="0 0 215.17 59.35">
  <defs>
    <style>
      .cls-1 {
        fill: #050504;
        fill-rule: evenodd;
      }
    </style>
  </defs>
  <g id="Isolation_Mode" data-name="Isolation Mode">
    <path class="cls-1" d="M11.76.09c.62-.17,1.28-.07,1.89.07.92.23,1.88.47,2.64,1.06.39.29.74.73.7,1.23,0,8.62,0,17.23,0,25.85-.02,2.83.16,5.68-.38,8.47-.4,2.27-1.3,4.53-2.97,6.2-.55.6-1.17,1.15-1.9,1.54-.61.32-1.29.61-2,.55-.16-.17-.3-.37-.27-.62.05-.67.31-1.31.53-1.94.68-2.15.86-4.41.94-6.65.06-10.5.08-21,.13-31.5,0-.27-.02-.54-.06-.81-.41.02-.67.35-.95.6-1.3,1.23-2.37,2.69-3.14,4.3-1,2.05-1.51,4.29-1.72,6.54-.18,1.46-.06,2.95.3,4.38.3,1.1.76,2.19,1.49,3.08.31.36.42.92.16,1.33-.39.4-1,.19-1.47.04-1.55-.54-2.89-1.58-3.91-2.83-1.22-1.51-1.74-3.45-1.78-5.35.12-1.68.58-3.32,1.21-4.88.91-2.31,2.25-4.47,3.97-6.29,1.12-1.14,2.35-2.17,3.69-3.06.91-.56,1.85-1.08,2.9-1.35h0ZM70.16.51c.51-.42,1.22-.36,1.84-.28,1.1.18,2.2.44,3.23.88.32.13.59.33.84.56-.1,2.35-.2,4.7-.32,7.05,2.43.11,4.85.24,7.28.38.42.02.99.14,1.06.63.1.73-.02,1.5-.36,2.16-.21.34-.5.76-.97.73-2.36.04-4.71.11-7.07.14-.13,3.3-.22,6.61-.34,9.91-.06,3.01-.35,6.03-.02,9.04.15,1.17.3,2.38.88,3.43.24.46.67.85,1.21.91.7.06,1.39-.22,1.91-.66.83-.69,1.4-1.62,1.89-2.56.57-1.08.99-2.24,1.36-3.4.14-.51.03-1.05.08-1.57.03-2.76.48-5.53,1.45-8.13.73-1.89,1.77-3.74,3.4-5.02,1.78-1.45,4.39-1.93,6.56-1.05,1.4.53,2.53,1.6,3.23,2.88.09-.6-.05-1.27.22-1.83.39-.62,1.23-.65,1.89-.59.89.1,1.78.31,2.57.74.48.26.96.69.97,1.27-.15,5.04-.37,10.08-.2,15.12.05,1.09.21,2.18.45,3.25.2.77.46,1.61,1.12,2.13.62.47,1.51.32,2.1-.13.94-.72,1.49-1.79,1.97-2.84.12-.3.3-.6.24-.94-.35-3.02-.42-6.1.08-9.11.36-2.02.98-4.03,2.05-5.8,1.08-1.81,2.66-3.39,4.62-4.3.38-.15.76-.35,1.17-.38,1.93-.02,3.93.61,5.31,1.97.36.38.66.8.93,1.23.13-.57,0-1.17.2-1.71.31-.64,1.15-.67,1.78-.59,1.05.17,2.13.39,3.06.91.58.33.58,1.06.55,1.63-.05,5.68-.14,11.36-.18,17.03,1.32-1.82,2.53-3.72,3.56-5.71,1.27-2.41,2.35-4.95,2.89-7.62-.72-.64-1.39-1.42-1.6-2.37-.19-.78-.01-1.57.21-2.32.35-1.13,1.21-2.17,2.41-2.5.91-.25,1.95-.27,2.8.17.65.34,1.01,1.02,1.12,1.71.12.7.01,1.4-.12,2.09,1.56-.24,3.12-.49,4.65-.86,1.05-.23,2.18-.42,3.23-.09.75.22,1.3.88,1.48,1.61.19.78.25,1.62-.05,2.38-.41,1-.51,2.09-.74,3.14-.5,2.79-1.14,5.63-.66,8.47.17,1.26.44,2.53.95,3.71.31.62.71,1.31,1.44,1.53.72.19,1.45-.17,2-.6.91-.8,1.51-1.91,1.78-3.06-.61-2.97-.76-6.05-.27-9.05.35-2.25,1.01-4.47,2.13-6.48.88-1.51,2.1-2.91,3.73-3.68,1.81-.87,4.06-.87,5.83.11,1.1.55,1.93,1.48,2.56,2.51.1-.61-.06-1.29.27-1.85.5-.61,1.41-.57,2.13-.47,1.05.18,2.2.43,2.94,1.25.48.51.25,1.24.25,1.86-.09,3.31-.23,6.62-.22,9.93.02,2.53-.08,5.1.61,7.57.2.63.46,1.3,1.03,1.71.63.44,1.53.35,2.13-.1.82-.61,1.38-1.48,1.86-2.36.38-.79.84-1.56,1.04-2.41.01-5.57.04-11.14.05-16.7-.04-.47.14-1.02.62-1.22.35-.21.76-.06,1.14-.01,1.01.18,2.07.21,3.01.68.35.17.72.47.69.89,0,2.75,0,5.5,0,8.25,0,.32,0,.64.03.95.83-2.51,1.71-5.01,2.7-7.46.39-.91.8-1.82,1.31-2.67.38-.68,1.28-.8,2-.75,1.53.11,3.16.76,3.97,2.1.29.49.42,1.06.42,1.62-.03,2.86.14,5.72.35,8.58.07.89.08,1.78.22,2.66.1-.07.16-.16.17-.27.3-2.11.85-4.19,1.46-6.23.69-2.27,1.44-4.52,2.41-6.69.25-.54.49-1.16,1.06-1.45.82-.44,1.81-.3,2.66-.05.97.33,1.98.66,2.76,1.33.57.47,1.03,1.15,1.05,1.9-.24,4.43-.46,8.88-.12,13.31.1,1.22.25,2.44.56,3.63.19.67.42,1.34.85,1.91.41.54,1.19.82,1.84.56.58-.22.97-.74,1.26-1.25.68-1.23.88-2.63,1.26-3.96.09-.4.28-.85.72-.99.31-.19.64.05.89.23.32.29.23.75.23,1.13-.09,2.14-.44,4.38-1.72,6.17-1.02,1.48-2.87,2.44-4.72,2.23-1.69-.08-3.27-1.03-4.18-2.41-1.16-1.71-1.62-3.75-1.93-5.75-.54-3.98-.4-8-.3-12-.17.11-.28.27-.36.44-1.15,2.23-1.93,4.63-2.54,7.05-.8,3.14-1.3,6.35-1.41,9.59.01.42-.32.73-.72.83-.91.36-1.99.44-2.89,0-.92-.42-1.59-1.23-2-2.12-.44-.91-.61-1.92-.76-2.91-.54-4.11-.73-8.26-.94-12.4.03-.3-.32-.11-.48-.08-2.07,3.51-3.12,7.49-3.65,11.48-.33,2.32-.44,4.66-.47,7,0,.42-.24.83-.62,1.04-.71.39-1.56.38-2.35.31-.94-.09-1.93-.17-2.73-.71-.34-.21-.56-.58-.58-.98-.06-.76-.07-1.52-.14-2.28-.43.61-.79,1.28-1.3,1.83-.82.94-1.88,1.74-3.13,2.03-1.77.39-3.74-.17-4.96-1.49-1-1.05-1.54-2.44-1.8-3.84-.89,1.88-2.33,3.57-4.24,4.53-.93.49-1.96.76-3.01.86-1.15.13-2.35,0-3.39-.52-1.53-.76-2.67-2.12-3.36-3.62-.81,1.77-2.2,3.48-4.2,4-1.97.53-4.1-.26-5.51-1.63-1.8-1.72-2.75-4.14-3.03-6.55-.16-1.16-.1-2.34-.02-3.51.18-2.61.47-5.24,1.17-7.77.01-.14.01-.28,0-.42-1.44-.07-2.88-.02-4.32.02-.71,2.38-1.77,4.65-2.95,6.84-2.04,3.74-4.55,7.24-7.36,10.47.03,3.11.13,6.23-.02,9.33-.16,2.47-.54,4.96-1.59,7.23-.8,1.69-2.06,3.22-3.77,4.11-1.27.69-2.72,1.05-4.16,1.14-1.8-.12-3.67-.56-5.07-1.72-.99-.79-1.67-1.93-1.92-3.15-.19-1.06-.25-2.18.11-3.22.64-1.95,1.92-3.62,3.29-5.13,1.39-1.54,3-2.87,4.52-4.29,1.22-1.11,2.44-2.22,3.67-3.32.02-.86-.12-1.73-.14-2.59-.56.72-1.07,1.49-1.78,2.08-1.76,1.67-4.3,2.52-6.74,2.21-1.69-.29-3.07-1.43-4.09-2.73-.39-.47-.73-.98-1.02-1.51-.9,1.73-2.19,3.5-4.18,4.1-1.98.55-4.22-.24-5.52-1.77-.85-1.02-1.41-2.28-1.59-3.59-.83,1.74-2.11,3.33-3.81,4.33-1.09.66-2.35,1.04-3.63,1.14-1.39.16-2.83-.16-3.98-.94-2.07-1.42-3.09-3.82-3.7-6.13-.32,1.03-.85,1.99-1.38,2.92-.55.84-1.13,1.67-1.87,2.35-.87.83-1.96,1.49-3.18,1.65-1.41.18-2.88-.24-3.96-1.14-.88-.73-1.53-1.68-2-2.7-.89-1.86-1.22-3.91-1.4-5.94-1.1,2.36-2.39,4.69-4.31,6.51-1.47,1.46-3.33,2.58-5.38,3.06-1.62.41-3.3.36-4.95.22-1.42-.14-2.87-.41-4.13-1.1-.61-.35-1.22-.84-1.41-1.53-.12-.77.33-1.46.76-2.06.42-.55.89-1.13,1.58-1.38.64-.2,1.19.3,1.68.61.77.66,1.64,1.26,2.66,1.47.99.25,2.18-.07,2.77-.92.54-.8.69-1.78.74-2.71-.01-1.76-1.17-3.27-2.39-4.46-1.15-1.07-2.34-2.08-3.53-3.11-1.68,2.79-3.49,5.52-5.19,8.3-1.02,1.78-2.25,3.48-3.81,4.85-1.13.98-2.48,1.82-4,2.02-1.02.15-2.06-.35-2.68-1.12-.82-1.01-1.17-2.29-1.36-3.54-.31-2.24-.19-4.51-.16-6.76.04-2.87.19-5.73.29-8.59.02-.61.09-1.23.03-1.84-.2.04-.43.05-.56.23-2.81,3.09-4.57,6.92-5.93,10.79-1.16,3.39-1.99,6.88-2.53,10.41-.45.36-1.06.46-1.63.37-.69-.1-1.39,0-2.07-.15-.61-.16-1.04-.68-1.27-1.22-.5-1.12-.56-2.36-.54-3.57.06-6.78.1-13.55.15-20.33-.02-.33.08-.74.44-.85.72-.22,1.48-.03,2.2.12.8.21,1.68.4,2.28,1,.31.28.18.73.2,1.09-.02,3.76-.07,7.52-.05,11.28,1.26-3.33,2.51-6.71,4.48-9.72.44-.62.86-1.26,1.4-1.8.94-1.06,2.23-2,3.72-2.03,1.12-.04,2.15.47,3.13.93.91.45,1.79,1.1,2.16,2.05.24.56.15,1.18.14,1.77-.1,3.23-.2,6.47-.31,9.7-.02,1.32-.13,2.64-.05,3.96.04.63.11,1.26.34,1.86.14.33.34.71.74.78.38.04.69-.22.97-.45.61-.54,1.11-1.19,1.6-1.84,1.39-1.89,2.58-3.9,3.77-5.9.7-1.24,1.43-2.47,2.07-3.74-.23-.37-.58-.67-.78-1.06-.77-1.21-.98-2.73-.58-4.1.37-1.33,1.22-2.52,2.35-3.35.8-.55,1.72-.91,2.68-1.09.91-.23,1.92-.1,2.73.38.56.33.84.97.86,1.59.05,1.17-.39,2.29-.95,3.3-.54,1-1.25,1.91-1.99,2.77,2.38,1.69,4.85,3.3,6.9,5.38,1.08,1.11,1.97,2.47,2.15,4.01.13.8.02,1.6-.11,2.39,2.24-1.9,3.97-4.5,4.42-7.4.06-4.42.05-8.84.09-13.26-2.07-.04-4.15-.04-6.22-.09-.41-.24-.49-.75-.51-1.17,0-1.01.29-2.07,1-2.84.11-.16.32-.11.49-.12,1.85.02,3.69.05,5.54.07.09-2.05.14-4.09.22-6.14.02-.59,0-1.25.41-1.72h0ZM92.76,17.56c-1.21.24-2.12,1.19-2.68,2.21-.76,1.38-1.11,2.94-1.34,4.48-.28,2.01-.37,4.04-.26,6.07.11,1.56.33,3.16,1.07,4.57.41.77,1.04,1.48,1.9,1.77.56.22,1.22.19,1.76-.09,1.1-.55,1.85-1.57,2.4-2.62.97-1.93,1.39-4.08,1.61-6.21.18-2.21.24-4.48-.31-6.65-.29-1.03-.73-2.07-1.56-2.81-.68-.62-1.67-.92-2.58-.71h0ZM118.57,17.64c-1.46.39-2.47,1.62-3.12,2.89-.95,1.97-1.34,4.15-1.51,6.3-.11,2.42-.13,4.91.63,7.24.39,1.1,1.04,2.23,2.17,2.73.71.33,1.57.26,2.23-.15.56-.35,1.05-.82,1.44-1.35.9-1.2,1.44-2.63,1.81-4.07.54-2.14.71-4.35.7-6.54-.02-1.5-.16-3.02-.64-4.45-.31-.88-.8-1.75-1.6-2.29-.6-.42-1.41-.52-2.11-.31h0ZM163.35,17.82c-1.27.2-2.24,1.16-2.82,2.23-1.04,1.91-1.35,4.09-1.54,6.21-.16,2.39-.23,4.82.35,7.16.29,1.14.78,2.31,1.73,3.07.62.49,1.49.76,2.27.48,1.02-.33,1.73-1.18,2.29-2.03,1.3-2.1,1.78-4.57,2.02-6.99.18-2.2.23-4.44-.32-6.6-.28-1.06-.75-2.12-1.61-2.85-.63-.56-1.53-.85-2.38-.69h0ZM121.63,44.31c-2.25,2.16-4.33,4.59-5.58,7.44-.45,1.02-.69,2.17-.37,3.26.22.84.9,1.56,1.78,1.78,1.08.28,2.32.28,3.3-.32.88-.57,1.46-1.49,1.81-2.45.67-1.84.8-3.81.89-5.74.03-1.89.08-3.78.1-5.67-.71.49-1.29,1.12-1.93,1.69h0Z"/>
  </g>
</svg>