<?xml version="1.0" encoding="UTF-8"?>
<svg id="Layer_2" data-name="Layer 2" xmlns="http://www.w3.org/2000/svg" viewBox="0 0 295.7 66.01">
  <defs>
    <style>
      .cls-1 {
        fill: #fff;
      }

      .cls-2 {
        fill: #e7211b;
      }

      .cls-3 {
        fill: #292829;
      }
    </style>
  </defs>
  <g id="Isolation_Mode" data-name="Isolation Mode">
    <g>
      <path class="cls-2" d="M92.34,10.31c-1.08-4.05-4.28-7.25-8.34-8.34-7.35-1.97-36.85-1.97-36.85-1.97,0,0-29.48,0-36.84,1.97C6.26,3.05,3.06,6.24,1.97,10.31c-1.97,7.35-1.97,22.7-1.97,22.7,0,0,0,15.35,1.97,22.7,1.08,4.05,4.28,7.25,8.34,8.34,7.37,1.97,36.84,1.97,36.84,1.97,0,0,29.5,0,36.85-1.97,4.05-1.08,7.25-4.28,8.34-8.34,1.96-7.35,1.96-22.7,1.96-22.7,0,0,0-15.35-1.96-22.7"/>
      <polygon class="cls-1" points="37.73 47.15 62.23 33 37.73 18.86 37.73 47.15"/>
      <path class="cls-3" d="M136.88,60.05c-1.86-1.26-3.19-3.21-3.98-5.87-.78-2.66-1.18-6.18-1.18-10.59v-6c0-4.46.45-8.03,1.35-10.73.9-2.7,2.31-4.67,4.22-5.9,1.9-1.23,4.41-1.86,7.52-1.86s5.51.63,7.35,1.89c1.85,1.26,3.2,3.23,4.05,5.9.86,2.67,1.28,6.24,1.28,10.68v6c0,4.41-.42,7.95-1.25,10.62-.82,2.67-2.17,4.64-4.05,5.87-1.86,1.23-4.4,1.86-7.59,1.86-3.27.01-5.85-.62-7.71-1.88M147.34,53.57c.51-1.35.78-3.56.78-6.6v-12.89c0-2.97-.26-5.13-.78-6.51-.51-1.36-1.42-2.05-2.73-2.05s-2.15.69-2.67,2.05c-.51,1.37-.78,3.54-.78,6.51v12.89c0,3.06.24,5.27.73,6.6.5,1.35,1.4,2.03,2.7,2.03s2.22-.68,2.75-2.03"/>
      <path class="cls-3" d="M280.11,43.7v2.09c0,2.66.08,4.63.24,5.97.15,1.32.48,2.3.98,2.9.5.6,1.26.91,2.3.91,1.39,0,2.35-.54,2.86-1.62.51-1.08.8-2.88.84-5.4l8.03.47c.04.36.06.86.06,1.48,0,3.83-1.05,6.68-3.13,8.57-2.08,1.89-5.04,2.84-8.87,2.84-4.59,0-7.8-1.44-9.65-4.32-1.84-2.88-2.76-7.32-2.76-13.35v-7.22c0-6.21.96-10.73,2.87-13.59,1.91-2.85,5.18-4.28,9.81-4.28,3.2,0,5.64.59,7.35,1.76,1.71,1.17,2.91,2.99,3.62,5.46.69,2.48,1.05,5.9,1.05,10.25v7.08h-15.59ZM281.29,26.3c-.46.59-.78,1.54-.95,2.86-.16,1.32-.24,3.35-.24,6.03v2.97h6.81v-2.97c0-2.66-.09-4.67-.27-6.03-.18-1.36-.51-2.34-.98-2.9-.46-.55-1.2-.84-2.19-.84-.99-.01-1.73.29-2.19.87"/>
      <path class="cls-3" d="M114.23,42.92l-10.59-38.24h9.24l3.71,17.33c.95,4.28,1.64,7.91,2.09,10.92h.27c.31-2.16,1-5.78,2.08-10.86l3.84-17.4h9.24l-10.71,38.26v18.35h-9.17v-18.35Z"/>
      <path class="cls-3" d="M187.53,19.92v41.33h-7.28l-.81-5.06h-.19c-1.98,3.83-4.95,5.73-8.9,5.73-2.75,0-4.77-.9-6.08-2.7-1.31-1.8-1.95-4.61-1.95-8.43v-30.87h9.3v30.35c0,1.84.19,3.17.6,3.95.4.78,1.08,1.19,2.02,1.19.81,0,1.59-.24,2.33-.74.73-.49,1.29-1.12,1.65-1.89V19.92h9.3Z"/>
      <path class="cls-3" d="M235.27,19.92v41.33h-7.27l-.81-5.06h-.19c-1.98,3.83-4.95,5.73-8.9,5.73-2.74,0-4.77-.9-6.08-2.7-1.31-1.8-1.95-4.61-1.95-8.43v-30.87h9.3v30.35c0,1.84.19,3.17.6,3.95.4.78,1.08,1.19,2.02,1.19.81,0,1.59-.24,2.33-.74.74-.49,1.29-1.12,1.65-1.89V19.92h9.3Z"/>
      <polygon class="cls-3" points="212.82 12.17 203.58 12.17 203.58 61.25 194.47 61.25 194.47 12.17 185.23 12.17 185.23 4.68 212.81 4.68 212.81 12.17 212.82 12.17"/>
      <path class="cls-3" d="M266.07,26.54c-.57-2.61-1.47-4.5-2.73-5.67-1.26-1.17-2.98-1.76-5.19-1.76-1.71,0-3.3.48-4.79,1.46-1.48.96-2.62,2.23-3.44,3.81h-.07V2.6h-8.97v58.67h7.68l.95-3.92h.19c.72,1.4,1.8,2.49,3.24,3.3,1.44.81,3.03,1.21,4.79,1.21,3.15,0,5.46-1.46,6.95-4.35,1.49-2.9,2.22-7.43,2.22-13.59v-6.54c.02-4.62-.27-8.24-.82-10.85M257.53,43.4c0,3.02-.12,5.37-.38,7.08-.24,1.71-.66,2.93-1.25,3.65-.58.72-1.36,1.08-2.35,1.08-.77,0-1.47-.18-2.13-.54-.65-.36-1.19-.9-1.59-1.62v-23.48c.32-1.13.86-2.04,1.62-2.76.76-.72,1.59-1.08,2.49-1.08.95,0,1.68.38,2.19,1.11.51.73.87,2,1.08,3.74.2,1.76.3,4.25.3,7.49v5.34h.02Z"/>
    </g>
  </g>
</svg>